# xmcd CD database file
#
# Track frame offsets:
#	150
#	13213
#	29120
#	47831
#	61888
#	77634
#	93626
#	110352
#	123571
#	138522
#
# Disc length: 2018 seconds
#
# Revision: 0
# Processed by: cddbd v1.5.2PL0 Copyright (c) Steve Scherf et al.
# Submitted via: cdripper 1,0,33,916
#
DISCID=8c07e00a
DTITLE=Charlie Craig - The Hit Maker
DYEAR=1900
DGENRE=Country
TTITLE0=I wish I had You back again
TTITLE1=Blowing smoke in my eyes
TTITLE2=Wanted
TTITLE3=I married your sister
TTITLE4=Between an old memory and me
TTITLE5=Lay me down a truck driving man
TTITLE6=Frog  for the water
TTITLE7=Following the feeling
TTITLE8=Chanpagne chevrolet
TTITLE9=Down home loving
EXTD=
EXTT0=
EXTT1=
EXTT2=
EXTT3=
EXTT4=
EXTT5=
EXTT6=
EXTT7=
EXTT8=
EXTT9=
PLAYORDER=
